<?xml version="1.0" encoding="utf-8"?>
<!-- Generator: Adobe Illustrator 16.0.0, SVG Export Plug-In . SVG Version: 6.00 Build 0)  -->
<!DOCTYPE svg PUBLIC "-//W3C//DTD SVG 1.1//EN" "http://www.w3.org/Graphics/SVG/1.1/DTD/svg11.dtd">
<svg version="1.1" id="Layer_1" xmlns="http://www.w3.org/2000/svg" xmlns:xlink="http://www.w3.org/1999/xlink" x="0px" y="0px"
	 width="24px" height="24px" viewBox="0 0 24 24" enable-background="new 0 0 24 24" xml:space="preserve">
<g>
	<path fill-rule="evenodd" clip-rule="evenodd" fill="#1CBBA3" d="M7.554,4.142c0.291,0.168,0.704,0.17,1.076,0.29
		c0.29,0.074,0.704,0.313,0.785,0.362c0.744,0.434,1.404,1.202,1.653,1.827C9.125,6.69,7.717,6.88,6.723,7.455
		c-1.036,0.6-1.078,1.394-0.583,2.499c0.954-0.312,6.493-0.453,7.237-0.021c0.412,0.24,0.329,0.575,0.082,0.72
		c-0.123,0.072-0.454,0.167-0.744,0.144c-1.776-0.217-4.795-0.193-6.203,0.143c0.083,0.432,0.207,0.889,0.33,1.345
		c0.953-0.265,5.418-0.313,6.038,0.046c0.37,0.215,0.289,0.552,0.04,0.695c-0.124,0.072-0.289,0.12-0.495,0.145
		c-0.579,0-1.239-0.097-1.818-0.095c-1.281-0.071-2.398,0.048-3.393,0.193l0.495,1.633c0.497-0.145,3.97-0.292,4.63,0.09
		c0.372,0.216,0.29,0.552,0,0.72c-0.082,0.048-0.249,0.097-0.454,0.12c-0.372,0.025-0.827-0.047-1.199-0.07
		c-0.951-0.119-1.943-0.022-2.647,0.148c0.702,2.183,1.402,4.367,2.186,6.548c0.084,0.288,0.33,0.575,0.663,0.765
		c0.702,0.407,1.65,0.332,2.229-0.006c0.742-0.434,0.661-1.008,0.951-1.753c0.165-0.432,0.33-0.96,0.456-1.367
		c0.288-0.792,0.619-1.657,0.825-2.495c0.951-2.997,2.19-5.92,2.81-9.008c0.082-0.432-0.494-0.912-0.863-1.127
		c-0.907-0.528-2.266-0.698-3.791-0.82c0.081-0.767,0.783-1.414,1.567-1.867c0.372-0.215,0.619-0.358,1.156-0.525
		c0.247-0.097,1.193-0.167,1.442-0.309c0.329-0.191,0.329-0.478,0-0.672c-1.028-0.602-3.502,0.64-3.791,0.807
		c-0.125,0.071-0.537,0.358-0.992,0.622c0.125-0.647,0.332-1.293,0.58-1.869c0.289-0.6,0.702-1.222,1.032-1.796
		c0.124-0.167-0.123-0.312-0.246-0.383c-0.373-0.217-0.826-0.195-1.156-0.003c-0.454,0.262-1.448,2.275-1.571,2.682
		c-0.125,0.36-0.207,0.792-0.291,1.175c-0.123-0.023-0.165-0.096-1.157-0.673C9.664,3.69,8.342,3.062,7.596,3.494
		C7.182,3.732,7.266,3.974,7.554,4.142z"/>
</g>
</svg>
