<?xml version="1.0" encoding="utf-8"?>
<!-- Generator: Adobe Illustrator 16.0.0, SVG Export Plug-In . SVG Version: 6.00 Build 0)  -->
<!DOCTYPE svg PUBLIC "-//W3C//DTD SVG 1.1//EN" "http://www.w3.org/Graphics/SVG/1.1/DTD/svg11.dtd">
<svg version="1.1" id="Layer_1" xmlns="http://www.w3.org/2000/svg" xmlns:xlink="http://www.w3.org/1999/xlink" x="0px" y="0px"
	 width="24px" height="24px" viewBox="0 0 24 24" enable-background="new 0 0 24 24" xml:space="preserve">
<g>
	<path fill-rule="evenodd" clip-rule="evenodd" fill="#1CBBA3" d="M9.701,16.242c-0.007,1.352-1.253,2.407-2.398,2.407
		c-1.308,0-2.281-1.253-2.274-2.407c0.006-1.22,1.026-2.34,2.266-2.34C8.568,13.902,9.706,14.956,9.701,16.242z M18.827,8.382
		c0.097,0.557,0.161,0.984,0.16,1.51c0,0.064,0.033,0.623-0.066,0.952c-0.361,1.544-1.148,3.222-2.358,4.771
		c-0.524,0.66-1.439,0.99-2.06,0.99c-1.407,0-2.871-1.517-2.865-2.637l0.003-1.184c0.035-0.264,0.068-0.593,0.199-0.822
		c1.052-2.202,2.33-4.728,3.442-6.202c0.359-0.493,0.619-0.525,0.945-0.525C17.563,5.235,18.697,7.661,18.827,8.382z M20.202,2.031
		c1.398,1.079,2.146,2.912,2.503,4.024c0.097,0.326,0.227,0.72,0.293,1.081c0.13,0.754,0.26,2.329,0.26,2.427
		c0,0.132-0.196,1.971-0.359,2.529c-0.751,2.798-2.714,5.667-4.614,8.507c-0.196,0.298-0.492,0.728-0.884,1.059
		c-0.886,0.662-1.147,0.793-1.933,0.793c-1.342,0-1.896-0.925-3.434-0.925c-1.833,0-2.33,1.224-4.033,1.521
		C7.674,23.081,7.05,23.28,6.953,23.28c-0.066,0-0.752-0.199-1.145-0.232c-1.996-0.232-4.208-2.449-4.655-3.804
		c-0.096-0.362-0.257-0.693-0.319-1.023c-0.031-0.232-0.094-0.66-0.092-0.726l0.006-1.088c0.041-1.122,0.507-2.274,1.396-3.359
		c0.657-0.823,1.512-1.645,2.365-2.434c1.54-1.51,3.209-2.953,4.748-4.395c1.536-1.441,3.203-3.272,4.866-4.611
		c0.293-0.262,0.683-0.424,1.009-0.621c0.586-0.326,1.008-0.262,1.625-0.262C18.025,0.725,18.707,0.921,20.202,2.031z"/>
</g>
</svg>
