<?xml version="1.0" encoding="utf-8"?>
<!-- Generator: Adobe Illustrator 16.0.0, SVG Export Plug-In . SVG Version: 6.00 Build 0)  -->
<!DOCTYPE svg PUBLIC "-//W3C//DTD SVG 1.1//EN" "http://www.w3.org/Graphics/SVG/1.1/DTD/svg11.dtd">
<svg version="1.1" id="Layer_1" xmlns="http://www.w3.org/2000/svg" xmlns:xlink="http://www.w3.org/1999/xlink" x="0px" y="0px"
	 width="24px" height="24px" viewBox="0 0 24 24" enable-background="new 0 0 24 24" xml:space="preserve">
<g>
	<path fill-rule="evenodd" clip-rule="evenodd" fill="#1CBBA3" d="M13.205,1.621c0.178,0.249,0.32,0.603,0.497,0.921
		c0.532,0.995,1.101,1.952,1.456,2.98c1.099,3.372,2.128,6.921,3.085,10.364c0.108,0.391,0.178,1.169,0.178,1.242
		c0,0.106-0.106,0.922-0.178,1.349c-0.176,0.957-0.993,2.022-1.632,3.051c-0.282,0.426-0.708,1.065-1.135,1.49
		c-0.461,0.427-0.957,0.568-1.383,0.64c-0.106,0-0.249,0.07-0.355,0.07h-3.582c-0.108-0.036-0.214-0.07-0.32-0.07
		c-0.957,0-2.092-1.349-2.625-2.272c-0.745-1.313-1.632-2.412-1.632-3.689v-1.101c0.07-1.029,0.532-2.13,0.816-3.159
		c0.212-0.745,0.461-1.526,0.673-2.271C7.601,9.356,8.098,7.475,8.7,5.665C8.915,4.92,9.339,4.103,9.765,3.358
		c0.532-0.923,0.887-1.88,1.596-2.767c0.142-0.213,0.426-0.32,0.602-0.32C12.602,0.271,12.957,1.194,13.205,1.621z"/>
</g>
</svg>
