<svg xmlns="http://www.w3.org/2000/svg" viewBox="0 0 512 270">
<path fill="#fff" d="M419.313 140.046a8.155 8.155 0 0 0-11.529 0l-8.941 8.942-32.282-32.282a8.153 8.153 0 0 0-11.529 0l-32.282 32.282-8.942-8.942a8.152 8.152 0 0 0-11.529-.001 8.152 8.152 0 0 0 0 11.529l14.707 14.707a8.15 8.15 0 0 0 11.53.001L360.796 134l32.282 32.282a8.153 8.153 0 0 0 11.529 0l14.706-14.706a8.153 8.153 0 0 0 0-11.53zm-208.509.005a8.152 8.152 0 0 0-11.529-.001l-8.941 8.941-32.282-32.282a8.153 8.153 0 0 0-11.529 0l-32.282 32.282-8.942-8.942a8.152 8.152 0 0 0-11.529.001 8.152 8.152 0 0 0 0 11.529l14.707 14.707a8.153 8.153 0 0 0 11.529 0l32.282-32.282 32.282 32.282a8.13 8.13 0 0 0 5.765 2.387 8.131 8.131 0 0 0 5.765-2.387l14.706-14.705a8.153 8.153 0 0 0-.002-11.53z"/><path fill="#fff" d="M510.623 217.585L367.572 3.798a8.154 8.154 0 0 0-13.552 0l-97.479 145.683L159.064 3.799a8.154 8.154 0 0 0-13.552 0L2.464 217.585a8.154 8.154 0 0 0 6.767 12.689 8.146 8.146 0 0 0 6.783-3.62l136.272-203.66 94.444 141.148-35.758 53.441a8.154 8.154 0 0 0 13.553 9.067l38.758-57.924c.041-.06.083-.12.122-.182l97.392-145.553L497.07 226.654a8.148 8.148 0 0 0 11.309 2.242 8.155 8.155 0 0 0 2.244-11.311zm-7.864 28.996h-57.07v-2.718a8.152 8.152 0 0 0-8.153-8.153 8.152 8.152 0 0 0-8.153 8.153v2.718h-16.306v-2.718a8.152 8.152 0 0 0-8.153-8.153 8.152 8.152 0 0 0-8.153 8.153v2.718h-48.917v-2.718c0-4.504-3.65-8.153-8.153-8.153s-8.153 3.649-8.153 8.153v2.718H48.917v-2.718a8.152 8.152 0 0 0-8.153-8.153 8.152 8.152 0 0 0-8.153 8.153v2.718H8.153C3.65 246.581 0 250.23 0 254.734s3.65 8.153 8.153 8.153h494.606c4.503 0 8.153-3.649 8.153-8.153s-3.65-8.153-8.153-8.153z"/></svg>