<?xml version="1.0" encoding="utf-8"?>
<!-- Generator: Adobe Illustrator 16.0.0, SVG Export Plug-In . SVG Version: 6.00 Build 0)  -->
<!DOCTYPE svg PUBLIC "-//W3C//DTD SVG 1.1//EN" "http://www.w3.org/Graphics/SVG/1.1/DTD/svg11.dtd">
<svg version="1.1" id="Layer_1" xmlns="http://www.w3.org/2000/svg" xmlns:xlink="http://www.w3.org/1999/xlink" x="0px" y="0px"
	 width="24px" height="24px" viewBox="0 0 24 24" enable-background="new 0 0 24 24" xml:space="preserve">
<path fill-rule="evenodd" clip-rule="evenodd" fill="#0099CC" d="M10.246,14.535c0,0-0.288,0.29-0.288,0.415
	c0,0.124,0.6,0.29,0.6,0.497c0,0.195-0.6,0.386-0.6,0.579c0,0.193,0.6,0.331,0.6,0.497c0,0.166-0.6,0.345-0.6,0.538
	c0,0.193,0.6,0.345,0.6,0.496c0,0.152-0.6,0.442-0.6,0.58s0.691,0.377,0.691,0.571s-0.527,0.256-0.527,0.422
	c0,0.166,0.641,0.345,0.641,0.497s-0.477,0.193-0.477,0.372c0,0.18,0.559,0.221,0.559,0.415c0,0.193-0.353,0.358-0.353,0.455
	c0,0.097,0.219,0.194,0.37,0.539s0.631,2.4,0.74,2.4s0.923-3.206,0.946-3.311c0.028-0.124,0.206-0.304,0.206-0.455
	c0-0.152-0.435-0.262-0.435-0.373c0-0.11,0.682-0.331,0.682-0.538c0-0.207-0.436-0.166-0.436-0.332s0.6-0.4,0.6-0.537
	c0-0.139-0.518-0.263-0.518-0.456c0-0.193,0.682-0.373,0.682-0.539c0-0.165-0.682-0.386-0.682-0.538
	c0-0.152,0.641-0.345,0.641-0.538c0-0.193-0.641-0.331-0.641-0.497c0-0.165,0.641-0.441,0.641-0.621
	c0-0.179-0.641-0.234-0.641-0.414c0-0.179,0.641-0.414,0.641-0.579c0-0.166-0.452-0.331-0.452-0.538l0.021,0.187
	c0-0.58,1.028-0.662,1.357-0.787c0.37-0.165,0.781-0.373,1.192-0.58c1.192-0.621,2.262-2.152,2.673-3.104
	c0.37-0.828,0.493-1.656,0.493-2.483c0-3.601-2.879-6.581-6.539-6.581c-2.919,0-5.88,1.904-6.497,5.877V7.52
	c0,0.083,0.082,0.373,0.082,0.538c0.206,1.366,1.028,2.98,2.714,4.056c0.288,0.208,0.596,0.497,0.884,0.497
	c0.658,0,0.986-1.614,0.986-1.904c0-0.166,0.042-0.29-0.123-0.414C8.765,9.3,8.087,8.472,8.087,6.734
	c0-2.235,1.645-3.974,3.947-3.974c1.81,0,3.454,0.994,3.989,3.477v1.035c-0.042,0.249-0.165,0.456-0.206,0.746
	c-0.248,1.158-1.933,2.565-2.961,2.648c-0.165,0-0.37,0.083-0.535,0.083c-0.329,0.041-0.699,0.083-0.945,0.207
	c-0.535,0.248-1.234,0.952-1.11,1.407v1.862C10.267,14.246,10.246,14.535,10.246,14.535z"/>
</svg>
