<?xml version="1.0" encoding="utf-8"?>
<!-- Generator: Adobe Illustrator 16.0.0, SVG Export Plug-In . SVG Version: 6.00 Build 0)  -->
<!DOCTYPE svg PUBLIC "-//W3C//DTD SVG 1.1//EN" "http://www.w3.org/Graphics/SVG/1.1/DTD/svg11.dtd">
<svg version="1.1" id="Layer_1" xmlns="http://www.w3.org/2000/svg" xmlns:xlink="http://www.w3.org/1999/xlink" x="0px" y="0px"
	 width="24px" height="24px" viewBox="0 0 24 24" enable-background="new 0 0 24 24" xml:space="preserve">
<g>
	<path fill-rule="evenodd" clip-rule="evenodd"  d="M6.062,16.264c0,0.103-0.068,0.576-0.102,0.847
		c-0.068,0.507-0.748,1.895-1.358,1.895c-0.409,0-0.578-0.643-0.578-0.812v-0.643c0.067-0.609,0.475-2.472,1.393-2.472
		C6.029,15.079,6.062,16.028,6.062,16.264z M16.767,4.283c1.767,0.238,3.432,2.437,3.603,3.689c0.033,0.339,0.203,0.949,0.203,1.016
		c0,0.576-0.509,1.861-0.747,2.301c-0.408,0.678-1.258,1.456-1.971,1.827c-0.271,0.136-6.288,3.25-7.714,3.25
		c-0.51,0-1.19-0.338-1.19-0.947v-0.678c-0.102-0.338-0.237-0.88-0.441-1.219c-0.409-0.711-1.155-1.387-1.155-2.065v-0.643
		c0.033-0.236,0.1-0.541,0.202-0.745c0.511-1.049,1.803-2.404,2.958-3.282c1.529-1.185,3.059-2.167,4.587-2.505
		c0.238-0.033,0.715-0.135,0.817-0.135C15.985,4.147,16.495,4.25,16.767,4.283z M23.631,8.885c0,4.502-3.874,7.074-7.171,8.395
		c-1.936,0.778-3.908,1.319-5.811,1.828c-0.407,0.1-0.883,0.236-1.29,0.44c-0.748,0.305-1.563,1.083-2.312,1.759
		c-1.054,0.914-1.869,1.321-2.855,1.321c-1.292,0-2.582-0.407-3.364-2.166c-0.102-0.238-0.34-0.847-0.34-1.185
		c0,0-0.271-1.422,0-2.741c0.27-1.32,1.155-3.013,2.174-4.502c0.442-0.676,0.68-1.455,1.055-2.132
		c0.815-1.523,2.651-3.35,4.248-4.704c1.698-1.455,3.399-2.606,5.098-3.282c0.306-0.136,0.713-0.271,1.053-0.34
		c0.612-0.136,1.836-0.203,1.904-0.203C20.607,1.373,23.631,5.332,23.631,8.885z"/>
</g>
</svg>
