<?xml version="1.0" encoding="iso-8859-1"?>
<!-- Generator: Adobe Illustrator 19.0.0, SVG Export Plug-In . SVG Version: 6.00 Build 0)  -->
<svg version="1.1" id="Layer_1" 
	xmlns="http://www.w3.org/2000/svg" 
	xmlns:xlink="http://www.w3.org/1999/xlink" x="0px" y="0px" viewBox="0 0 512 512" style="enable-background:new 0 0 512 512;" xml:space="preserve">
	<path fill="#fff" d="M438.468 0c-40.546 0-73.532 32.986-73.532 73.532s32.986 73.532 73.532 73.532S512 114.078 512 73.532 479.014 0 438.468 0zm0 130.723c-31.535 0-57.191-25.656-57.191-57.191s25.657-57.191 57.191-57.191 57.191 25.656 57.191 57.191-25.656 57.191-57.191 57.191zM422.128 310.468H299.574c-4.513 0-8.17 3.658-8.17 8.17s3.657 8.17 8.17 8.17h122.553c4.513 0 8.17-3.658 8.17-8.17s-3.656-8.17-8.169-8.17z" />
	<path fill="#fff" d="M476.596 256H358.538c-3.698-15.596-17.742-27.234-34.453-27.234h-57.191v-35.404c0-22.526-18.325-40.851-40.851-40.851h-32.681c-22.526 0-40.851 18.325-40.851 40.851v35.404h-27.234V128c0-22.526-18.325-40.851-40.851-40.851H73.532c-22.526 0-40.851 18.325-40.851 40.851v218.946L3.638 366.309A8.166 8.166 0 0 0 0 373.106V503.83c0 4.512 3.657 8.17 8.17 8.17s8.17-3.658 8.17-8.17V377.479l16.34-10.894v39.528c0 4.512 3.657 8.17 8.17 8.17s8.17-3.658 8.17-8.17v-54.739-204.31h27.234v57.191c0 4.512 3.657 8.17 8.17 8.17s8.17-3.658 8.17-8.17v-57.191h16.34V503.83a8.17 8.17 0 0 0 8.17 8.17 8.17 8.17 0 0 0 8.17-8.17V326.809h27.234V503.83c0 4.512 3.657 8.17 8.17 8.17s8.17-3.658 8.17-8.17V212.426h81.702v65.524c0 .5.046 1 .137 1.492l21.65 116.53V503.83a8.17 8.17 0 0 0 8.17 8.17 8.17 8.17 0 0 0 8.17-8.17v-95.036l27.234 14.43v80.606a8.17 8.17 0 0 0 8.17 8.17 8.17 8.17 0 0 0 8.17-8.17v-85.524a8.169 8.169 0 0 0-4.344-7.219l-40.089-21.24-20.929-112.65v-32.09h57.191c10.511 0 19.064 8.553 19.064 19.064a8.17 8.17 0 0 0 8.17 8.17h125.277c10.511 0 19.064 8.553 19.064 19.064s-8.553 19.064-19.064 19.064h-21.787c-4.513 0-8.17 3.658-8.17 8.17s3.657 8.17 8.17 8.17h21.787c19.522 0 35.404-15.883 35.404-35.404C512 271.883 496.118 256 476.596 256zm-367.66-125.277H49.021V128c0-13.516 10.996-24.511 24.511-24.511h10.894c13.515 0 24.511 10.995 24.511 24.511v2.723zm43.575 179.745h-27.234v-65.362h27.234v65.362zm98.042-114.383h-81.702v-2.723c0-13.516 10.996-24.511 24.511-24.511h32.681c13.515 0 24.511 10.995 24.511 24.511v2.723z" />
	<path fill="#fff" d="M193.362 228.766a8.17 8.17 0 0 0-8.17 8.17v206.979c0 4.512 3.657 8.17 8.17 8.17s8.17-3.658 8.17-8.17V236.936a8.17 8.17 0 0 0-8.17-8.17zM476.596 343.149h-95.319c-19.522 0-35.404 15.883-35.404 35.404 0 19.521 15.882 35.404 35.404 35.404h95.319c19.522 0 35.404-15.883 35.404-35.404 0-19.521-15.882-35.404-35.404-35.404zm0 54.468h-95.319c-10.511 0-19.064-8.553-19.064-19.064s8.553-19.064 19.064-19.064h95.319c10.511 0 19.064 8.553 19.064 19.064s-8.553 19.064-19.064 19.064zM313.191 38.128H187.915c-19.522 0-35.404 15.883-35.404 35.404s15.882 35.404 35.404 35.404h125.277c19.522 0 35.404-15.883 35.404-35.404s-15.882-35.404-35.405-35.404zm0 54.468H187.915c-10.511 0-19.064-8.553-19.064-19.064s8.553-19.064 19.064-19.064h125.277c10.511 0 19.064 8.553 19.064 19.064s-8.553 19.064-19.065 19.064zM84.426 228.766a8.17 8.17 0 0 0-8.17 8.17v239.66c0 4.512 3.657 8.17 8.17 8.17s8.17-3.658 8.17-8.17v-239.66a8.17 8.17 0 0 0-8.17-8.17z" />
</svg>
