<?xml version="1.0" encoding="utf-8"?>
<!-- Generator: Adobe Illustrator 16.0.0, SVG Export Plug-In . SVG Version: 6.00 Build 0)  -->
<!DOCTYPE svg PUBLIC "-//W3C//DTD SVG 1.1//EN" "http://www.w3.org/Graphics/SVG/1.1/DTD/svg11.dtd">
<svg version="1.1" id="Layer_1" xmlns="http://www.w3.org/2000/svg" xmlns:xlink="http://www.w3.org/1999/xlink" x="0px" y="0px"
	 width="24px" height="24px" viewBox="0 0 24 24" enable-background="new 0 0 24 24" xml:space="preserve">
<g>
	<path fill-rule="evenodd" clip-rule="evenodd"  d="M4.81,20.903c0,0.657-1.606,1.936-2.044,2.339
		c-0.256,0.219-0.292,0.219-0.511,0.219c-0.548,0-1.059-0.622-1.569-1.242c-0.109-0.146-0.146-0.366-0.146-0.439
		c0-0.11,0.072-0.366,0.182-0.476c0.401-0.511,1.788-2.083,2.373-2.083C3.605,19.22,4.81,20.5,4.81,20.903z M12.876,2.55
		c0.364,0.037,0.729,0.037,1.094,0.109c0.256,0.038,0.512,0.182,0.804,0.219c0.401,0.074,0.912,0.366,0.912,0.732
		c0,0.475-1.459,1.717-1.826,1.864c-0.546,0.219-0.327,0.074-0.765,0.074h-2.264c-0.475,0.035-1.131,0.254-1.569,0.475
		C6.526,7.303,5.43,9.971,5.43,12.019c0,0.11,0.073,0.731,0.11,1.061c0.072,0.438,0.182,0.913,0.401,1.425
		c0.366,0.731,0.839,1.683,1.825,2.449c0.986,0.804,2.189,1.389,3.212,1.463c0.329,0,0.875,0.145,0.984,0.145
		c0.074,0,0.804-0.145,1.205-0.182c2.483-0.219,4.928-3.181,5.146-4.899c0-0.145,0.074-0.329,0.109-0.511l-0.035-2.339
		c-0.037-0.293,0-0.622,0.219-0.878c0.438-0.548,1.131-1.463,1.679-1.463c1.021,0,1.205,3.437,1.205,3.729
		c0,0.072-0.109,0.622-0.109,0.914c-0.147,1.901-0.804,3.839-2.592,5.704c-1.278,1.316-2.919,2.157-4.271,2.523
		c-0.328,0.109-0.729,0.145-1.021,0.182c-0.511,0.072-1.459,0.109-1.534,0.109c-2.957,0-6.059-0.987-8.358-4.935
		c-0.548-1.024-0.986-2.229-1.022-3.217c0-0.11-0.037-0.292-0.037-0.366v-1.864c0.072-0.438,0.11-0.914,0.182-1.316
		c0.256-1.426,1.023-2.961,2.336-4.35c1.168-1.244,2.592-2.011,3.907-2.449c0.62-0.221,1.386-0.366,2.007-0.403
		c0.292,0,0.839-0.072,0.949-0.072C12,2.478,12.547,2.55,12.876,2.55z M23.461,2.221c0,0.657-1.424,1.754-2.007,2.376
		c-3.651,3.729-7.409,7.421-11.132,11.113c-0.182,0.183-0.548,0.364-0.695,0.364c-0.655,0-1.641-1.132-1.641-1.68
		c0-0.731,1.313-1.754,1.97-2.376c3.688-3.765,7.409-7.495,11.169-11.186c0.256-0.293,0.401-0.293,0.62-0.293
		C22.256,0.539,23.461,1.818,23.461,2.221z"/>
</g>
</svg>
