<svg xmlns="http://www.w3.org/2000/svg" width="24" height="24">
    <path fill-rule="evenodd" clip-rule="evenodd" d="M7.899 18.721c.312.126.656.283.999.41.779.313 1.622.598 2.432.943.656.252 1.31.535 1.965.787 1.061.44 2.215.818 3.336 1.321.125.064.251.159.251.315 0 .095-.188.252-.281.252H9.677c-.124-.032-.28-.063-.375-.095a10.618 10.618 0 0 1-1.497-.566c-.53-.252-1.653-.441-1.653-1.29v-1.921c.031-.347.25-.566.531-.566.343.001.904.285 1.216.41zm1.466-4.439c1.497.567 3.025 1.197 4.554 1.795.654.283 1.403.472 2.058.818.531.282 1.871.377 1.871 1.416V20.2c-.063.347-.281.599-.529.599-.313 0-5.521-2.173-7.392-2.896-.624-.252-1.309-.472-1.933-.755-.344-.157-1.841-.441-1.841-1.322v-1.952c.031-.377.25-.566.531-.566.405-.001 2.588.942 2.681.974zm.032-5.005c1.527.567 3.056 1.228 4.615 1.827.593.251 1.248.471 1.872.723.53.253 1.964.504 1.964 1.48v1.857c-.063.346-.248.598-.561.598-.281 0-5.208-2.015-6.955-2.707-.53-.189-1.091-.44-1.654-.661-.468-.189-.966-.441-1.434-.567-.561-.157-1.092-.566-1.092-1.038V8.836c.032-.346.25-.566.532-.566.342 0 2.462.913 2.713 1.007zm-1.31-5.54c.187.063.405.157.592.221.624.22 1.279.503 1.903.755 2.151.851 4.334 1.7 6.486 2.581.094.032.281.157.438.252.123.094.342.535.342.693v1.919c-.03.346-.281.598-.529.598-.063 0-1.498-.535-2.184-.817-.498-.189-1.029-.378-1.497-.599-2.213-.881-4.459-1.731-6.643-2.644-.187-.063-.343-.189-.53-.316-.125-.062-.312-.535-.312-.66V3.831c.031-.346.25-.567.531-.567.311 0 1.215.41 1.403.473zm6.018-2.487c1.154.221 2.276.724 3.4 1.228.123.063.342.535.342.662v2.046c-.124.408-.247.534-.529.534-.437 0-2.589-.976-2.808-1.07a13.806 13.806 0 0 1-1.466-.567c-1.902-.754-3.836-1.542-5.738-2.266-.155-.064-.28-.221-.28-.316 0-.22.344-.22.405-.251h6.674z"/>
</svg>