<?xml version="1.0" encoding="utf-8"?>
<!-- Generator: Adobe Illustrator 16.0.0, SVG Export Plug-In . SVG Version: 6.00 Build 0)  -->
<!DOCTYPE svg PUBLIC "-//W3C//DTD SVG 1.1//EN" "http://www.w3.org/Graphics/SVG/1.1/DTD/svg11.dtd">
<svg version="1.1" id="Layer_1" xmlns="http://www.w3.org/2000/svg" xmlns:xlink="http://www.w3.org/1999/xlink" x="0px" y="0px"
	 width="24px" height="24px" viewBox="0 0 24 24" enable-background="new 0 0 24 24" xml:space="preserve">
<g>
	<path fill-rule="evenodd" clip-rule="evenodd" fill="#1CBBA3" d="M10.494,15.634c-0.017,0-0.017,0.017-0.071,0.017
		c-0.39,0-0.871-0.268-1.227-0.501c0.071-0.107,0.197-0.232,0.285-0.358c0.124-0.161,0.249-0.339,0.356-0.519L10.494,15.634z
		 M11.562,14.505l0.728-0.017c-0.053,0.287-0.124,0.536-0.178,0.788c-0.017,0.036-0.176,0.733-0.462,0.733
		c-0.195,0-0.516-0.43-0.604-0.572c-0.25-0.448-0.48-0.877-0.694-1.289C10.53,14.237,11.277,14.505,11.562,14.505z M13.57,14.094
		c0.071,0.572,0.32,1.201,0.837,1.808c-0.233,0.251-1.032,0.823-1.37,0.823c-0.16,0-0.285-0.197-0.285-0.322v-0.482
		c0.035-0.125,0.035-0.251,0.055-0.377c0.035-0.107,0.052-0.232,0.071-0.358c0.071-0.269,0.142-0.555,0.195-0.84
		c0.072-0.145,0.303-0.197,0.426-0.251H13.57z M13.943,1.958c0.604-0.322,1.139-0.483,1.743-0.483c0.284,0,0.747,0.036,1.049,0.143
		c0.053,0.019,0.107,0.054,0.196,0.071c0.675,0.18,1.724,1.164,1.938,1.917c0,0.035,0.053,0.089,0.072,0.107
		c2.008,0.268,3.076,1.898,3.076,3.456c0,0.59-0.214,1.163-0.214,1.217c0,0.052,0.285,0.394,0.392,0.607
		c0.355,0.681,0.445,1.056,0.445,1.684c0,0.465,0.034,0.465-0.162,1.108c-0.16,0.555-0.568,1.183-1.173,1.666
		c-0.195,0.144-0.409,0.287-0.623,0.376c-0.088,0.036-0.231,0.071-0.284,0.161c-0.071,0.107-0.035,0.268-0.071,0.394
		c-0.036,0.143-0.071,0.304-0.143,0.465c-0.64,1.557-1.991,2.22-3.146,2.22c-0.569,0-1.104-0.09-1.672-0.413
		c-0.124-0.055-0.267-0.178-0.319-0.178c-0.035,0-1.031,0.949-1.441,1.485c-0.071,0.09-0.053,0.251-0.071,0.375
		c-0.071,0.448-0.195,1.361-0.195,1.897c0,0.985,0.445,2.633,0.624,3.563H9.837c0.248-1.235,0.622-2.469,0.711-3.705l-0.019-1.522
		l-0.107-1.896c-0.107,0-0.23,0-0.355-0.037c-0.125-0.017-0.266-0.071-0.373-0.124c-0.392-0.18-1.28-0.788-1.352-0.788
		c-0.036,0-0.197,0.088-0.302,0.124c-0.427,0.18-0.854,0.251-1.281,0.251c-1.208,0-2.755-0.752-3.271-2.434
		c-0.017-0.072-0.143-0.626-0.143-0.771v-0.446c-0.764-0.681-1.102-1.397-1.228-2.078c0-0.036-0.017-0.071-0.017-0.106V9.208
		c0.036-0.161,0.071-0.341,0.124-0.519C2.262,8.545,2.333,8.366,2.404,8.24c0.214-0.482,0.711-1.056,1.227-1.396
		C3.72,6.772,3.648,6.629,3.648,6.539c0-1.127,0.676-2.631,2.152-3.222c0.195-0.09,0.445-0.143,0.676-0.197
		c0.23-0.036,0.444-0.036,0.692-0.036h0.373c0.393-2.059,1.939-2.882,3.344-2.882C11.971,0.203,13.056,0.561,13.943,1.958z"/>
</g>
</svg>
