<?xml version="1.0" encoding="utf-8"?>
<!-- Generator: Adobe Illustrator 16.0.0, SVG Export Plug-In . SVG Version: 6.00 Build 0)  -->
<!DOCTYPE svg PUBLIC "-//W3C//DTD SVG 1.1//EN" "http://www.w3.org/Graphics/SVG/1.1/DTD/svg11.dtd">
<svg version="1.1" id="Layer_1" xmlns="http://www.w3.org/2000/svg" xmlns:xlink="http://www.w3.org/1999/xlink" x="0px" y="0px"
	 width="24px" height="24px" viewBox="0 0 24 24" enable-background="new 0 0 24 24" xml:space="preserve">
<g>
	<path fill-rule="evenodd" clip-rule="evenodd" d="M15.812,13.333c0,2.169-1.16,4.402-4.157,5.083
		c-0.29,0.064-0.87,0.161-0.935,0.161c-0.097,0-0.58-0.129-0.87-0.161c-1.772-0.196-3.545-1.944-3.9-3.141
		c-0.096-0.357-0.29-1.037-0.29-1.101v-1.585c0.515-2.978,2.869-4.37,5.06-4.37C13.62,8.219,15.812,10.549,15.812,13.333z
		 M18.195,2.425c0,1.197-3.189,3.106-3.576,3.205c-0.29,0.097-0.58,0.226-0.837,0.323c-0.774,0.258-1.611,0.485-2.417,0.485h-0.806
		c-4.287,0.517-6.671,3.625-6.671,6.928c0,3.528,2.611,6.279,5.705,6.765c0.354,0.032,1.031,0.162,1.096,0.162
		c0.097,0,0.645-0.064,0.967-0.13c0.387-0.097,0.838-0.193,1.321-0.322c2.61-0.811,4.544-4.014,4.512-5.926
		c0.096-0.388,0.129-0.776,0.161-1.165c0.032-0.42,0.095-0.873,0.16-1.326c0.097-1.004,0.58-2.072,1.192-3.076
		c0.419-0.744,1.708-2.46,2.643-2.46c0.773,0,1.354,0.712,1.354,1.424c0,0.227,0.032,0.421-0.258,0.744
		c-1.192,1.264-1.998,2.428-2.224,3.724c-0.064,0.355-0.226,0.97-0.226,1.067v1.004c-0.032,0.26-0.096,0.519-0.096,0.776
		c-0.129,1.425-0.709,2.817-1.644,4.273c-0.933,1.457-2.609,2.686-3.898,3.238c-0.483,0.193-0.902,0.356-1.354,0.485
		c-0.322,0.064-0.999,0.292-1.45,0.292H9.463c-0.516-0.097-0.967-0.161-1.451-0.324c-1.385-0.421-2.964-1.166-4.286-2.622
		c-1.515-1.652-2.223-3.431-2.449-5.115c-0.033-0.356-0.194-1.036-0.194-1.101v-0.712c0.065-0.388,0.161-0.809,0.194-1.197
		c0.064-0.551,0.193-1.133,0.418-1.716c0.451-1.101,0.967-2.233,1.999-3.302C4.887,5.499,6.336,4.658,7.594,4.27
		c0.193-0.064,0.387-0.161,0.58-0.195c0.483-0.129,1.451-0.257,1.547-0.257h0.805c0.645-0.098,1.256-0.195,1.87-0.292
		c0.29-0.032,0.612-0.195,0.934-0.323c0.419-0.162,0.935-0.453,1.418-0.81C15.683,1.68,16.038,1,16.779,1
		C17.455,1,18.195,1.809,18.195,2.425z"/>
</g>
</svg>
